<svg xmlns="http://www.w3.org/2000/svg" width="24" height="25" viewBox="0 0 24 25" fill="none">
                    <path d="M7.8 2.28027H16.2C19.4 2.28027 22 4.88027 22 8.08027V16.4803C22 18.0185 21.3889 19.4938 20.3012 20.5815C19.2135 21.6692 17.7383 22.2803 16.2 22.2803H7.8C4.6 22.2803 2 19.6803 2 16.4803V8.08027C2 6.54202 2.61107 5.06677 3.69878 3.97905C4.78649 2.89134 6.26174 2.28027 7.8 2.28027ZM7.6 4.28027C6.64522 4.28027 5.72955 4.65956 5.05442 5.33469C4.37928 6.00982 4 6.92549 4 7.88027V16.6803C4 18.6703 5.61 20.2803 7.6 20.2803H16.4C17.3548 20.2803 18.2705 19.901 18.9456 19.2259C19.6207 18.5507 20 17.6351 20 16.6803V7.88027C20 5.89027 18.39 4.28027 16.4 4.28027H7.6ZM17.25 5.78027C17.5815 5.78027 17.8995 5.91197 18.1339 6.14639C18.3683 6.38081 18.5 6.69875 18.5 7.03027C18.5 7.36179 18.3683 7.67974 18.1339 7.91416C17.8995 8.14858 17.5815 8.28027 17.25 8.28027C16.9185 8.28027 16.6005 8.14858 16.3661 7.91416C16.1317 7.67974 16 7.36179 16 7.03027C16 6.69875 16.1317 6.38081 16.3661 6.14639C16.6005 5.91197 16.9185 5.78027 17.25 5.78027ZM12 7.28027C13.3261 7.28027 14.5979 7.80706 15.5355 8.74474C16.4732 9.68242 17 10.9542 17 12.2803C17 13.6064 16.4732 14.8781 15.5355 15.8158C14.5979 16.7535 13.3261 17.2803 12 17.2803C10.6739 17.2803 9.40215 16.7535 8.46447 15.8158C7.52678 14.8781 7 13.6064 7 12.2803C7 10.9542 7.52678 9.68242 8.46447 8.74474C9.40215 7.80706 10.6739 7.28027 12 7.28027ZM12 9.28027C11.2044 9.28027 10.4413 9.59634 9.87868 10.159C9.31607 10.7216 9 11.4846 9 12.2803C9 13.0759 9.31607 13.839 9.87868 14.4016C10.4413 14.9642 11.2044 15.2803 12 15.2803C12.7956 15.2803 13.5587 14.9642 14.1213 14.4016C14.6839 13.839 15 13.0759 15 12.2803C15 11.4846 14.6839 10.7216 14.1213 10.159C13.5587 9.59634 12.7956 9.28027 12 9.28027Z" fill="#067042"/>
                    </svg>
