<svg xmlns="http://www.w3.org/2000/svg" width="198" height="26" viewBox="0 0 198 26" fill="none">
  <path fill-rule="evenodd" clip-rule="evenodd" d="M0 0.848633V25.9996H16.9916V21.3356H6.19893V0.848633H0ZM25.6593 21.8285C26.3769 21.8285 26.9717 21.6716 27.4444 21.3587C27.9172 21.0468 28.256 20.6927 28.4619 20.2994V17.2913H26.7867C24.7817 17.2913 23.7792 18.2068 23.7792 20.0378C23.7792 20.571 23.9561 21.0036 24.309 21.3326C24.6628 21.6625 25.1136 21.8285 25.6593 21.8285ZM29.2645 25.6515C29.0596 25.2692 28.8777 24.7078 28.7178 23.9664C27.6583 25.3215 26.178 25.9986 24.275 25.9986C22.5318 25.9986 21.0516 25.4634 19.8322 24.3919C18.6128 23.3205 18.0031 21.9734 18.0031 20.3507C18.0031 18.3114 18.7447 16.7712 20.225 15.7279C21.7063 14.6857 23.8592 14.1635 26.6848 14.1635H28.4619V13.1676C28.4619 11.4332 27.7263 10.566 26.257 10.566C24.8907 10.566 24.207 11.2531 24.207 12.6263H18.4479C18.4479 10.8104 19.2085 9.33455 20.7297 8.20074C22.25 7.06694 24.19 6.49954 26.5469 6.49954C28.9057 6.49954 30.7688 7.08404 32.1351 8.25507C33.5024 9.42509 34.2031 11.0297 34.2371 13.069V21.3939C34.26 23.1203 34.5219 24.4422 35.0227 25.3567V25.6515H29.2645ZM52.525 17.9352L54.3881 6.84662H59.9074L55.5495 25.6525H50.6799L47.6214 14.4935L44.545 25.6525H39.6764L35.3185 6.84662H40.8378L42.6659 18.1957L45.6044 6.84762H49.6204L52.525 17.9352ZM67.2547 6.84662L67.4426 9.05386C68.718 7.35064 70.4781 6.49853 72.723 6.49853C74.6481 6.49853 76.0863 7.08404 77.0379 8.25507C77.9884 9.42509 78.4812 11.1867 78.5161 13.5378V25.6525H72.739V13.7813C72.739 12.8316 72.5521 12.1334 72.1763 11.6867C71.8005 11.241 71.1168 11.0187 70.1253 11.0187C68.9979 11.0187 68.1603 11.4704 67.6135 12.3738V25.6525H61.8554V6.84662H67.2547Z" fill="#0AB463"/>
  <mask id="mask0_5302_1944" style="mask-type:alpha" maskUnits="userSpaceOnUse" x="81" y="0" width="20" height="26">
    <path d="M81.1816 0H100.798V26H81.1816V0Z" fill="white"/>
  </mask>
  <g mask="url(#mask0_5302_1944)">
    <path fill-rule="evenodd" clip-rule="evenodd" d="M94.7999 18.9266C94.7999 18.0342 94.49 17.3391 93.8683 16.8411C93.2477 16.3431 92.1572 15.827 90.597 15.2938C89.0357 14.7606 87.7604 14.2455 86.7689 13.7465C83.5455 12.1368 81.9333 9.92357 81.9333 7.10767C81.9333 5.70627 82.3351 4.46985 83.1377 3.39741C83.9413 2.32599 85.0767 1.49098 86.546 0.894396C88.0172 0.297816 89.6674 -0.000976562 91.5035 -0.000976562C93.2916 -0.000976562 94.8948 0.323973 96.3131 0.972866C97.7324 1.62176 98.8339 2.5453 99.6195 3.7445C100.406 4.94369 100.799 6.31391 100.799 7.85516H94.8179C94.8179 6.82397 94.508 6.02417 93.8873 5.45677C93.2656 4.88936 92.4261 4.60566 91.3666 4.60566C90.2961 4.60566 89.4495 4.84611 88.8288 5.32699C88.2091 5.80788 87.8983 6.41854 87.8983 7.15999C87.8983 7.80888 88.2401 8.39741 88.9228 8.92357C89.6065 9.45174 90.8089 9.99601 92.528 10.5584C94.2482 11.1197 95.6605 11.7254 96.7659 12.3743C99.4546 13.9497 100.799 16.1228 100.799 18.8914C100.799 21.1047 99.9793 22.8431 98.3381 24.1057C96.6969 25.3682 94.4471 26 91.5875 26C89.5715 26 87.7454 25.6328 86.1102 24.8964C84.476 24.161 83.2466 23.1529 82.42 21.8723C81.5944 20.5916 81.1816 19.1177 81.1816 17.4487H87.1976C87.1976 18.8049 87.5415 19.8039 88.2311 20.4467C88.9208 21.0906 90.0392 21.4125 91.5895 21.4125C92.579 21.4125 93.3626 21.1942 93.9383 20.7596C94.513 20.326 94.7999 19.7143 94.7999 18.9266Z" fill="#0AB463"/>
  </g>
  <path fill-rule="evenodd" clip-rule="evenodd" d="M109.955 2.17188V6.84692H112.996V10.9143H109.955V19.5169C109.955 20.2242 110.08 20.7161 110.33 20.9938C110.58 21.2725 111.076 21.4113 111.817 21.4113C112.386 21.4113 112.864 21.3771 113.252 21.3077V25.4958C112.215 25.8318 111.133 25.9988 110.006 25.9988C108.024 25.9988 106.559 25.525 105.614 24.5743C104.668 23.6246 104.195 22.1819 104.195 20.2463V10.9143H101.838V6.84692H104.196V2.17188H109.955ZM122.43 21.8288C123.148 21.8288 123.744 21.6719 124.217 21.359C124.688 21.0471 125.027 20.693 125.233 20.2996V17.2916H123.558C121.553 17.2916 120.55 18.2071 120.55 20.0381C120.55 20.5713 120.727 21.0038 121.08 21.3328C121.434 21.6628 121.884 21.8288 122.43 21.8288ZM126.036 25.6517C125.831 25.2694 125.649 24.7081 125.489 23.9666C124.429 25.3218 122.949 25.9988 121.046 25.9988C119.304 25.9988 117.823 25.4636 116.603 24.3922C115.384 23.3208 114.775 21.9737 114.775 20.3509C114.775 18.3117 115.515 16.7715 116.996 15.7282C118.477 14.6859 120.63 14.1638 123.456 14.1638H125.233V13.1678C125.233 11.4334 124.497 10.5662 123.029 10.5662C121.662 10.5662 120.978 11.2533 120.978 12.6266H115.22C115.22 10.8107 115.98 9.33486 117.501 8.20105C119.021 7.06725 120.961 6.49985 123.318 6.49985C125.677 6.49985 127.54 7.08434 128.907 8.25537C130.274 9.4254 130.974 11.03 131.008 13.0692V21.3942C131.031 23.1205 131.293 24.4425 131.795 25.357V25.6517H126.036ZM145.018 12.1477L143.121 12.0089C141.31 12.0089 140.148 12.5884 139.635 13.7473V25.6517H133.877V6.84692H139.276L139.464 9.26241C140.432 7.42136 141.783 6.49985 143.514 6.49985C144.13 6.49985 144.664 6.56925 145.12 6.70809L145.018 12.1477ZM154.655 2.17188V6.84692H157.697V10.9143H154.655V19.5169C154.655 20.2242 154.78 20.7161 155.031 20.9938C155.281 21.2725 155.777 21.4113 156.518 21.4113C157.087 21.4113 157.566 21.3771 157.953 21.3077V25.4958C156.916 25.8318 155.834 25.9988 154.706 25.9988C152.724 25.9988 151.26 25.525 150.316 24.5743C149.369 23.6246 148.896 22.1819 148.896 20.2463V10.9143H146.538V6.84692H148.897V2.17188H154.655ZM167.787 11.0179C166.101 11.0179 165.098 12.1537 164.78 14.4244H170.59V13.9737C170.612 13.034 170.38 12.3077 169.889 11.7906C169.399 11.2765 168.698 11.0179 167.787 11.0179ZM168.437 25.9998C165.6 25.9998 163.304 25.1397 161.55 23.4193C159.796 21.699 158.918 19.4596 158.918 16.701V16.2151C158.918 14.2916 159.268 12.5944 159.97 11.1226C160.669 9.65175 161.693 8.51292 163.036 7.70709C164.381 6.90226 165.976 6.49985 167.821 6.49985C170.419 6.49985 172.469 7.31977 173.973 8.9586C175.476 10.5984 176.229 12.8841 176.229 15.8147V18.0924H164.78C164.984 19.1467 165.434 19.9747 166.13 20.5773C166.824 21.1799 167.724 21.4807 168.829 21.4807C170.652 21.4807 172.076 20.8328 173.101 19.534L175.733 22.698C175.015 23.7061 173.998 24.5089 172.683 25.1045C171.367 25.701 169.951 25.9998 168.437 25.9998ZM189.475 12.1477L187.578 12.0089C185.767 12.0089 184.605 12.5884 184.092 13.7473V25.6517H178.334V6.84692H183.733L183.921 9.26241C184.889 7.42136 186.24 6.49985 187.971 6.49985C188.587 6.49985 189.121 6.56925 189.577 6.70809L189.475 12.1477Z" fill="#0AB463"/>
  <mask id="mask1_5302_1944" style="mask-type:alpha" maskUnits="userSpaceOnUse" x="191" y="2" width="7" height="7">
    <path d="M191.76 2.17871H198V8.37991H191.76V2.17871Z" fill="white"/>
  </mask>
  <g mask="url(#mask1_5302_1944)">
    <path fill-rule="evenodd" clip-rule="evenodd" d="M194.426 5.12941H194.76C195.148 5.12941 195.463 4.99762 195.463 4.6777C195.463 4.39601 195.259 4.20788 194.815 4.20788C194.63 4.20788 194.5 4.227 194.426 4.24511V5.12941ZM194.408 6.8769H193.704V3.7944C194.089 3.72566 194.48 3.69433 194.871 3.70084C195.444 3.70084 195.704 3.7944 195.926 3.92619C196.093 4.05698 196.222 4.30144 196.222 4.60225C196.222 4.94128 195.962 5.20386 195.592 5.31653V5.35577C195.889 5.46845 196.056 5.6938 196.148 6.10728C196.241 6.5771 196.296 6.76523 196.371 6.8779H195.611C195.518 6.76523 195.463 6.48354 195.371 6.12639C195.315 5.78736 195.129 5.63746 194.742 5.63746H194.408V6.8769ZM192.537 5.2602C192.537 6.63243 193.536 7.72297 194.907 7.72297C196.24 7.72297 197.221 6.63243 197.221 5.27931C197.221 3.90708 196.24 2.79843 194.889 2.79843C193.536 2.79843 192.537 3.90708 192.537 5.2602ZM197.999 5.2602C197.999 7.00869 196.647 8.37991 194.889 8.37991C193.147 8.37991 191.759 7.00869 191.759 5.2612C191.759 3.55094 193.148 2.17871 194.888 2.17871C196.647 2.17871 197.999 3.54993 197.999 5.2602Z" fill="#0AB463"/>
  </g>
</svg>
