<svg xmlns="http://www.w3.org/2000/svg" width="24" height="25" viewBox="0 0 24 25" fill="none">
<path d="M6.93994 5.2803C6.93968 5.81073 6.72871 6.31933 6.35345 6.69422C5.97819 7.0691 5.46937 7.27956 4.93894 7.2793C4.40851 7.27903 3.89991 7.06806 3.52502 6.6928C3.15014 6.31754 2.93968 5.80873 2.93994 5.2783C2.94021 4.74786 3.15117 4.23926 3.52644 3.86438C3.9017 3.48949 4.41051 3.27903 4.94094 3.2793C5.47137 3.27956 5.97998 3.49053 6.35486 3.86579C6.72975 4.24105 6.94021 4.74986 6.93994 5.2803ZM6.99994 8.7603H2.99994V21.2803H6.99994V8.7603ZM13.3199 8.7603H9.33994V21.2803H13.2799V14.7103C13.2799 11.0503 18.0499 10.7103 18.0499 14.7103V21.2803H21.9999V13.3503C21.9999 7.1803 14.9399 7.4103 13.2799 10.4403L13.3199 8.7603Z" fill="#067042"/>
</svg>
