<svg xmlns="http://www.w3.org/2000/svg" width="24" height="25" viewBox="0 0 24 25" fill="none">
<path d="M21.5928 7.48328C21.4795 7.06041 21.2571 6.67472 20.9479 6.3648C20.6386 6.05488 20.2535 5.83159 19.8308 5.71728C18.2648 5.28728 11.9998 5.28028 11.9998 5.28028C11.9998 5.28028 5.73584 5.27328 4.16884 5.68428C3.74677 5.80443 3.36266 6.03106 3.05341 6.34242C2.74415 6.65377 2.52013 7.0394 2.40284 7.46228C1.98984 9.02828 1.98584 12.2763 1.98584 12.2763C1.98584 12.2763 1.98184 15.5403 2.39184 17.0903C2.62184 17.9473 3.29684 18.6243 4.15484 18.8553C5.73684 19.2853 11.9848 19.2923 11.9848 19.2923C11.9848 19.2923 18.2498 19.2993 19.8158 18.8893C20.2381 18.7742 20.6231 18.5511 20.933 18.2419C21.2428 17.9328 21.4668 17.5483 21.5828 17.1263C21.9968 15.5613 21.9998 12.3143 21.9998 12.3143C21.9998 12.3143 22.0198 9.04928 21.5928 7.48328ZM9.99584 15.2853L10.0008 9.28528L15.2078 12.2903L9.99584 15.2853Z" fill="#067042"/>
</svg>
