<svg width="1450" height="248" viewBox="0 0 1450 248" fill="none" xmlns="http://www.w3.org/2000/svg">
<g clip-path="url(#clip0_5301_6330)">
<rect width="1451" height="248" transform="matrix(-1 0 0 -1 1450 248)" fill="#067042"/>
<g opacity="0.3">
<g clip-path="url(#clip1_5301_6330)">
<g clip-path="url(#clip2_5301_6330)">
<mask id="mask0_5301_6330" style="mask-type:luminance" maskUnits="userSpaceOnUse" x="-558" y="-415" width="1476" height="1052">
<path d="M-558 636.561L917.786 636.561L917.786 -415H-558V636.561Z" fill="white"/>
</mask>
<g mask="url(#mask0_5301_6330)">
<g style="mix-blend-mode:soft-light" opacity="0.2">
<path opacity="0.1" d="M179.847 806.36C558.794 806.36 867.089 495.702 867.089 113.849C867.089 -268.003 558.794 -578.667 179.847 -578.667C-199.099 -578.667 -507.393 -268.003 -507.393 113.849C-507.393 495.702 -199.099 806.36 179.847 806.36ZM179.847 -629.744C279.457 -629.744 376.101 -610.083 467.098 -571.303C510.826 -552.663 553.004 -529.6 592.457 -502.736C631.525 -476.142 668.262 -445.596 701.652 -411.948C735.038 -378.31 765.348 -341.291 791.742 -301.919C818.397 -262.168 841.288 -219.666 859.786 -175.598C898.274 -83.9091 917.786 13.4748 917.786 113.849C917.786 214.224 898.274 311.608 859.786 403.297C841.288 447.365 818.397 489.867 791.742 529.618C765.348 568.99 735.038 606.009 701.652 639.651C668.262 673.296 631.525 703.839 592.457 730.436C553.004 757.295 510.826 780.361 467.098 799.002C376.101 837.785 279.457 857.446 179.847 857.446C80.2371 857.446 -16.4054 837.785 -107.4 799.002C-151.133 780.361 -193.306 757.295 -232.757 730.436C-271.828 703.839 -308.567 673.296 -341.955 639.651C-375.343 606.009 -405.649 568.99 -432.043 529.618C-458.697 489.867 -481.589 447.365 -500.089 403.297C-538.579 311.608 -558.09 214.224 -558.09 113.849C-558.09 13.4748 -538.579 -83.9091 -500.089 -175.598C-481.589 -219.666 -458.697 -262.168 -432.043 -301.919C-405.649 -341.291 -375.343 -378.31 -341.955 -411.948C-308.567 -445.596 -271.828 -476.142 -232.757 -502.736C-193.306 -529.6 -151.133 -552.663 -107.4 -571.303C-16.4054 -610.083 80.2371 -629.744 179.847 -629.744Z" fill="white"/>
<path opacity="0.2" d="M179.846 737.394C521.055 737.394 798.645 457.676 798.645 113.85C798.645 -229.974 521.055 -509.69 179.846 -509.69C-161.358 -509.69 -438.946 -229.974 -438.946 113.85C-438.946 457.676 -161.358 737.394 179.846 737.394ZM179.846 -555.104C269.455 -555.104 356.401 -537.414 438.259 -502.526C477.6 -485.757 515.546 -465.006 551.036 -440.843C586.185 -416.92 619.236 -389.436 649.269 -359.171C679.306 -328.907 706.576 -295.603 730.319 -260.185C754.297 -224.422 774.892 -186.185 791.533 -146.542C826.153 -64.0584 843.712 23.5543 843.712 113.85C843.712 204.147 826.153 291.76 791.533 374.244C774.892 413.886 754.297 452.124 730.319 487.887C706.576 523.303 679.306 556.605 649.269 586.872C619.236 617.14 586.185 644.619 551.036 668.545C515.546 692.707 477.6 713.46 438.259 730.224C356.401 765.113 269.455 782.807 179.846 782.807C90.2366 782.807 3.29138 765.113 -78.5652 730.224C-117.905 713.46 -155.855 692.707 -191.344 668.545C-226.493 644.619 -259.541 617.14 -289.577 586.872C-319.613 556.605 -346.877 523.303 -370.63 487.887C-394.603 452.124 -415.193 413.886 -431.832 374.244C-466.461 291.76 -484.02 204.147 -484.02 113.85C-484.02 23.5543 -466.461 -64.0584 -431.832 -146.542C-415.193 -186.185 -394.603 -224.422 -370.63 -260.185C-346.877 -295.603 -319.613 -328.907 -289.577 -359.171C-259.541 -389.436 -226.493 -416.92 -191.344 -440.843C-155.855 -465.006 -117.905 -485.757 -78.5652 -502.526C3.29138 -537.414 90.2366 -555.104 179.846 -555.104Z" fill="white"/>
<path opacity="0.3" d="M179.842 672.772C485.686 672.772 734.508 422.042 734.508 113.853C734.508 -194.335 485.686 -445.066 179.842 -445.066C-126 -445.066 -374.823 -194.335 -374.823 113.853C-374.823 422.042 -126 672.772 179.842 672.772ZM179.842 -490.48C260.793 -490.48 339.341 -474.491 413.292 -442.975C484.711 -412.538 548.844 -368.965 603.917 -313.473C658.988 -257.978 702.227 -193.354 732.433 -121.387C763.714 -46.8687 779.575 32.2814 779.575 113.853C779.575 195.425 763.714 274.57 732.433 349.094C702.227 421.06 658.988 485.685 603.917 541.179C548.844 596.673 484.711 640.244 413.292 670.682C339.341 702.202 260.793 718.185 179.842 718.185C98.8906 718.185 20.3478 702.202 -53.6075 670.682C-125.03 640.244 -189.154 596.673 -244.233 541.179C-299.302 485.685 -342.545 421.06 -372.751 349.094C-404.028 274.57 -419.887 195.425 -419.887 113.853C-419.887 32.2814 -404.028 -46.8687 -372.751 -121.387C-342.545 -193.354 -299.302 -257.978 -244.233 -313.473C-189.154 -368.965 -125.03 -412.538 -53.6075 -442.975C20.3478 -474.491 98.8906 -490.48 179.842 -490.48Z" fill="white"/>
<path opacity="0.4" d="M179.852 673.899C486.32 673.899 735.644 422.658 735.644 113.845C735.644 -194.972 486.32 -446.206 179.852 -446.206C-126.61 -446.206 -375.943 -194.972 -375.943 113.845C-375.943 422.658 -126.61 673.899 179.852 673.899ZM179.852 -489.349C260.656 -489.349 339.048 -473.4 412.861 -441.944C484.146 -411.557 548.162 -368.064 603.13 -312.678C658.098 -257.288 701.254 -192.785 731.409 -120.951C762.629 -46.575 778.459 32.4221 778.459 113.845C778.459 195.265 762.629 274.262 731.409 348.641C701.254 420.472 658.098 484.978 603.13 540.368C548.162 595.757 484.146 639.245 412.861 669.626C339.048 701.09 260.656 717.037 179.852 717.037C99.0531 717.037 20.6574 701.09 -53.1559 669.626C-124.439 639.245 -188.453 595.757 -243.422 540.368C-298.391 484.978 -341.545 420.472 -371.701 348.641C-402.917 274.262 -418.745 195.265 -418.745 113.845C-418.745 32.4221 -402.917 -46.575 -371.701 -120.951C-341.545 -192.785 -298.391 -257.288 -243.422 -312.678C-188.453 -368.064 -124.439 -411.557 -53.1559 -441.944C20.6574 -473.4 99.0531 -489.349 179.852 -489.349Z" fill="white"/>
<path opacity="0.5" d="M179.851 614.603C453.869 614.603 676.799 389.964 676.799 113.846C676.799 -162.272 453.869 -386.904 179.851 -386.904C-94.1628 -386.904 -317.091 -162.272 -317.091 113.846C-317.091 389.964 -94.1628 614.603 179.851 614.603ZM179.851 -432.318C253.01 -432.318 323.996 -417.871 390.832 -389.395C455.381 -361.882 513.342 -322.502 563.112 -272.349C612.883 -222.197 651.96 -163.792 679.259 -98.7526C707.529 -31.4037 721.861 40.1254 721.861 113.846C721.861 187.57 707.529 259.1 679.259 326.448C651.96 391.487 612.883 449.893 563.112 500.045C513.342 550.197 455.381 589.573 390.832 617.082C323.996 645.569 253.01 660.016 179.851 660.016C106.692 660.016 35.7074 645.569 -31.1282 617.082C-95.6736 589.573 -153.634 550.197 -203.411 500.045C-253.177 449.893 -292.258 391.487 -319.553 326.448C-347.828 259.1 -362.155 187.57 -362.155 113.846C-362.155 40.1254 -347.828 -31.4037 -319.553 -98.7526C-292.258 -163.792 -253.177 -222.197 -203.411 -272.349C-153.634 -322.502 -95.6736 -361.882 -31.1282 -389.395C35.7074 -417.871 106.692 -432.318 179.851 -432.318Z" fill="white"/>
<path opacity="0.6" d="M179.836 565.657C427.074 565.657 628.214 362.971 628.214 113.843C628.214 -135.291 427.074 -337.977 179.836 -337.977C-67.4003 -337.977 -268.535 -135.291 -268.535 113.843C-268.535 362.971 -67.4003 565.657 179.836 565.657ZM179.836 -376.579C245.528 -376.579 309.267 -363.604 369.281 -338.029C427.239 -313.325 479.284 -277.97 523.974 -232.937C568.663 -187.904 603.755 -135.456 628.265 -77.0545C653.651 -16.5853 666.52 47.6429 666.52 113.843C666.52 180.038 653.651 244.267 628.265 304.741C603.755 363.142 568.663 415.585 523.974 460.618C479.284 505.651 427.239 541.007 369.281 565.71C309.267 591.286 245.528 604.257 179.836 604.257C114.144 604.257 50.4064 591.286 -9.6076 565.71C-67.5645 541.007 -119.606 505.651 -164.3 460.618C-208.984 415.585 -244.072 363.142 -268.596 304.741C-293.979 244.267 -306.846 180.038 -306.846 113.843C-306.846 47.6429 -293.979 -16.5853 -268.596 -77.0545C-244.072 -135.456 -208.984 -187.904 -164.3 -232.937C-119.606 -277.97 -67.5645 -313.325 -9.6076 -338.029C50.4064 -363.604 114.144 -376.579 179.836 -376.579Z" fill="white"/>
<path opacity="0.7" d="M179.844 526.504C405.649 526.504 589.357 341.389 589.357 113.852C589.357 -113.686 405.649 -298.801 179.844 -298.801C-45.9611 -298.801 -229.665 -113.686 -229.665 113.852C-229.665 341.389 -45.9611 526.504 179.844 526.504ZM179.844 -321.505C238.164 -321.505 294.748 -309.991 348.019 -287.287C399.469 -265.36 445.673 -233.97 485.347 -193.992C525.021 -154.014 556.17 -107.453 577.931 -55.6122C600.462 -1.92865 611.888 55.0838 611.888 113.852C611.888 172.619 600.462 229.637 577.931 283.315C556.17 335.161 525.021 381.717 485.347 421.696C445.673 461.674 399.469 493.063 348.019 514.991C294.748 537.699 238.164 549.208 179.844 549.208C121.524 549.208 64.9409 537.699 11.6706 514.991C-39.7758 493.063 -85.9785 461.674 -125.66 421.696C-165.331 381.717 -196.477 335.161 -218.239 283.315C-240.771 229.637 -252.197 172.619 -252.197 113.852C-252.197 55.0838 -240.771 -1.92865 -218.239 -55.6122C-196.477 -107.453 -165.331 -154.014 -125.66 -193.992C-85.9785 -233.97 -39.7758 -265.36 11.6706 -287.287C64.9409 -309.991 121.524 -321.505 179.844 -321.505Z" fill="white"/>
<path opacity="0.8" d="M179.845 485.238C383.067 485.238 548.406 318.633 548.406 113.852C548.406 -90.9288 383.067 -257.534 179.845 -257.534C-23.3771 -257.534 -188.713 -90.9288 -188.713 113.852C-188.713 318.633 -23.3771 485.238 179.845 485.238ZM179.845 -277.968C232.336 -277.968 283.258 -267.607 331.202 -247.173C377.506 -227.437 419.092 -199.189 454.798 -163.209C490.505 -127.224 518.537 -85.3248 538.124 -38.664C558.403 9.64575 568.685 60.959 568.685 113.852C568.685 166.745 558.403 218.059 538.124 266.368C518.537 313.029 490.505 354.933 454.798 390.913C419.092 426.894 377.506 455.141 331.202 474.877C283.258 495.311 232.336 505.673 179.845 505.673C127.355 505.673 76.433 495.311 28.4894 474.877C-17.8152 455.141 -59.3953 426.894 -95.1033 390.913C-130.812 354.933 -158.847 313.029 -178.428 266.368C-198.708 218.059 -208.994 166.745 -208.994 113.852C-208.994 60.959 -198.708 9.64575 -178.428 -38.664C-158.847 -85.3248 -130.812 -127.224 -95.1033 -163.209C-59.3953 -199.189 -17.8152 -227.437 28.4894 -247.173C76.433 -267.607 127.355 -277.968 179.845 -277.968Z" fill="white"/>
<path opacity="0.9" d="M179.848 447.071C362.19 447.071 510.541 297.588 510.541 113.844C510.541 -69.8963 362.19 -219.38 179.848 -219.38C-2.49268 -219.38 -150.843 -69.8963 -150.843 113.844C-150.843 297.588 -2.49268 447.071 179.848 447.071ZM179.848 -239.814C227.224 -239.814 273.187 -230.465 316.465 -212.021C358.257 -194.206 395.791 -168.708 428.022 -136.232C460.251 -103.756 485.558 -65.9332 503.234 -23.8208C521.537 19.7894 530.82 66.1051 530.82 113.844C530.82 161.587 521.537 207.903 503.234 251.508C485.558 293.625 460.251 331.443 428.022 363.92C395.791 396.395 358.257 421.897 316.465 439.708C273.187 458.153 227.224 467.506 179.848 467.506C132.473 467.506 86.5097 458.153 43.2317 439.708C1.43939 421.897 -36.0946 396.395 -68.3238 363.92C-100.556 331.443 -125.859 293.625 -143.539 251.508C-161.839 207.903 -171.123 161.587 -171.123 113.844C-171.123 66.1051 -161.839 19.7894 -143.539 -23.8208C-125.859 -65.9332 -100.556 -103.756 -68.3238 -136.232C-36.0946 -168.708 1.43939 -194.206 43.2317 -212.021C86.5097 -230.465 132.473 -239.814 179.848 -239.814Z" fill="white"/>
<path d="M179.855 412.721C343.403 412.721 476.465 278.644 476.465 113.837C476.465 -50.9656 343.403 -185.042 179.855 -185.042C16.3073 -185.042 -116.745 -50.9656 -116.745 113.837C-116.745 278.644 16.3073 412.721 179.855 412.721ZM179.855 -205.476C222.63 -205.476 264.132 -197.031 303.205 -180.38C340.939 -164.298 374.831 -141.275 403.929 -111.95C433.027 -82.6295 455.874 -48.4822 471.835 -10.454C488.363 28.918 496.744 70.7383 496.744 113.837C496.744 156.941 488.363 198.761 471.835 238.133C455.874 276.161 433.027 310.309 403.929 339.629C374.831 368.954 340.939 391.976 303.205 408.06C264.132 424.71 222.63 433.155 179.855 433.155C137.08 433.155 95.5775 424.71 56.5056 408.06C18.7715 391.976 -15.1165 368.954 -44.218 339.629C-73.3155 310.309 -96.1636 276.161 -112.122 238.133C-128.651 198.761 -137.035 156.941 -137.035 113.837C-137.035 70.7383 -128.651 28.918 -112.122 -10.454C-96.1636 -48.4822 -73.3155 -82.6295 -44.218 -111.95C-15.1165 -141.275 18.7715 -164.298 56.5056 -180.38C95.5775 -197.031 137.08 -205.476 179.855 -205.476Z" fill="white"/>
<path d="M183.362 381.815C329.996 381.815 449.294 261.604 449.294 113.844C449.294 -33.9193 329.996 -154.129 183.362 -154.129C36.7271 -154.129 -82.5685 -33.9193 -82.5685 113.844C-82.5685 261.604 36.7271 381.815 183.362 381.815ZM183.362 -174.564C221.997 -174.564 259.48 -166.935 294.771 -151.895C328.854 -137.37 359.463 -116.573 385.745 -90.0892C412.027 -63.6061 432.662 -32.7667 447.081 1.57764C462.006 37.1436 469.578 74.9137 469.578 113.844C469.578 152.771 462.006 190.546 447.081 226.108C432.662 260.451 412.027 291.296 385.745 317.779C359.463 344.263 328.854 365.055 294.771 379.58C259.48 394.625 221.997 402.249 183.362 402.249C144.728 402.249 107.245 394.625 71.9539 379.58C37.8717 365.055 7.26242 344.263 -19.0196 317.779C-45.3016 291.296 -65.9366 260.451 -80.3503 226.108C-95.2832 190.546 -102.847 152.771 -102.847 113.844C-102.847 74.9137 -95.2832 37.1436 -80.3503 1.57764C-65.9366 -32.7667 -45.3016 -63.6061 -19.0196 -90.0892C7.26242 -116.573 37.8717 -137.37 71.9539 -151.895C107.245 -166.935 144.728 -174.564 183.362 -174.564Z" fill="white"/>
<path d="M183.36 345.161C309.936 345.161 412.907 241.396 412.907 113.853C412.907 -13.6943 309.936 -117.46 183.36 -117.46C56.7875 -117.46 -46.1883 -13.6943 -46.1883 113.853C-46.1883 241.396 56.7875 345.161 183.36 345.161ZM183.36 -137.894C217.083 -137.894 249.801 -131.234 280.609 -118.106C310.357 -105.427 337.076 -87.2755 360.014 -64.1612C382.957 -41.0418 400.966 -14.1225 413.553 15.8575C426.582 46.902 433.188 79.8705 433.188 113.853C433.188 147.831 426.582 180.804 413.553 211.844C400.966 241.824 382.957 268.744 360.014 291.862C337.076 314.977 310.357 333.128 280.609 345.807C249.801 358.94 217.083 365.596 183.36 365.596C149.636 365.596 116.919 358.94 86.1102 345.807C56.3633 333.128 29.6431 314.977 6.70483 291.862C-16.2374 268.744 -34.247 241.824 -46.8337 211.844C-59.8616 180.804 -66.4671 147.831 -66.4671 113.853C-66.4671 79.8705 -59.8616 46.902 -46.8337 15.8575C-34.247 -14.1225 -16.2374 -41.0418 6.70483 -64.1612C29.6431 -87.2755 56.3633 -105.427 86.1102 -118.106C116.919 -131.234 149.636 -137.894 183.36 -137.894Z" fill="white"/>
<path d="M160.857 286.118C255.127 286.118 331.821 208.836 331.821 113.843C331.821 18.8468 255.127 -58.4353 160.857 -58.4353C66.5877 -58.4353 -10.1061 18.8468 -10.1061 113.843C-10.1061 208.836 66.5877 286.118 160.857 286.118ZM160.857 -81.1394C186.975 -81.1394 212.317 -75.9847 236.178 -65.8112C259.22 -55.991 279.914 -41.9336 297.682 -24.03C315.448 -6.1275 329.4 14.7216 339.145 37.941C349.236 61.9888 354.356 87.5254 354.356 113.843C354.356 140.157 349.236 165.694 339.145 189.742C329.4 212.961 315.448 233.81 297.682 251.713C279.914 269.616 259.22 283.674 236.178 293.494C212.317 303.668 186.975 308.822 160.857 308.822C134.74 308.822 109.398 303.668 85.5368 293.494C62.4945 283.674 41.7995 269.616 24.0331 251.713C6.2666 233.81 -7.68488 212.961 -17.4301 189.742C-27.5214 165.694 -32.6412 140.157 -32.6412 113.843C-32.6412 87.5254 -27.5214 61.9888 -17.4301 37.941C-7.68488 14.7216 6.2666 -6.1275 24.0331 -24.03C41.7995 -41.9336 62.4945 -55.991 85.5368 -65.8112C109.398 -75.9847 134.74 -81.1394 160.857 -81.1394Z" fill="white"/>
</g>
</g>
</g>
</g>
</g>
<g clip-path="url(#clip3_5301_6330)">
<mask id="mask1_5301_6330" style="mask-type:alpha" maskUnits="userSpaceOnUse" x="697" y="-34" width="1298" height="370">
<path d="M1995 -34H697V336H1995V-34Z" fill="#E52B28"/>
</mask>
<g mask="url(#mask1_5301_6330)">
<g filter="url(#filter0_f_5301_6330)">
<path d="M1465.66 282.401C1592.76 282.401 1695.78 241.97 1695.78 192.095C1695.78 142.22 1592.76 101.789 1465.66 101.789C1338.57 101.789 1235.54 142.22 1235.54 192.095C1235.54 241.97 1338.57 282.401 1465.66 282.401Z" fill="url(#paint0_linear_5301_6330)"/>
</g>
<g filter="url(#filter1_f_5301_6330)">
<path d="M1475.8 402.543C1666.96 402.543 1821.93 341.729 1821.93 266.712C1821.93 191.694 1666.96 130.88 1475.8 130.88C1284.64 130.88 1129.67 191.694 1129.67 266.712C1129.67 341.729 1284.64 402.543 1475.8 402.543Z" fill="url(#paint1_linear_5301_6330)"/>
</g>
<g opacity="0.3" filter="url(#filter2_f_5301_6330)">
<path d="M1475.8 365.192C1614.4 365.192 1726.75 321.101 1726.75 266.712C1726.75 212.323 1614.4 168.232 1475.8 168.232C1337.2 168.232 1224.85 212.323 1224.85 266.712C1224.85 321.101 1337.2 365.192 1475.8 365.192Z" fill="#067042"/>
</g>
</g>
</g>
</g>
<defs>
<filter id="filter0_f_5301_6330" x="965.623" y="-168.129" width="1000.08" height="720.448" filterUnits="userSpaceOnUse" color-interpolation-filters="sRGB">
<feFlood flood-opacity="0" result="BackgroundImageFix"/>
<feBlend mode="normal" in="SourceGraphic" in2="BackgroundImageFix" result="shape"/>
<feGaussianBlur stdDeviation="134.959" result="effect1_foregroundBlur_5301_6330"/>
</filter>
<filter id="filter1_f_5301_6330" x="744.061" y="-254.726" width="1463.48" height="1042.88" filterUnits="userSpaceOnUse" color-interpolation-filters="sRGB">
<feFlood flood-opacity="0" result="BackgroundImageFix"/>
<feBlend mode="normal" in="SourceGraphic" in2="BackgroundImageFix" result="shape"/>
<feGaussianBlur stdDeviation="192.803" result="effect1_foregroundBlur_5301_6330"/>
</filter>
<filter id="filter2_f_5301_6330" x="945.278" y="-111.338" width="1061.04" height="756.1" filterUnits="userSpaceOnUse" color-interpolation-filters="sRGB">
<feFlood flood-opacity="0" result="BackgroundImageFix"/>
<feBlend mode="normal" in="SourceGraphic" in2="BackgroundImageFix" result="shape"/>
<feGaussianBlur stdDeviation="139.785" result="effect1_foregroundBlur_5301_6330"/>
</filter>
<linearGradient id="paint0_linear_5301_6330" x1="1465.66" y1="101.789" x2="1465.66" y2="282.401" gradientUnits="userSpaceOnUse">
<stop stop-color="white"/>
<stop offset="1" stop-color="white" stop-opacity="0"/>
</linearGradient>
<linearGradient id="paint1_linear_5301_6330" x1="1475.8" y1="130.88" x2="1475.8" y2="402.544" gradientUnits="userSpaceOnUse">
<stop stop-color="white"/>
<stop offset="1" stop-color="#0AB463"/>
</linearGradient>
<clipPath id="clip0_5301_6330">
<rect width="1451" height="248" fill="white" transform="matrix(-1 0 0 -1 1450 248)"/>
</clipPath>
<clipPath id="clip1_5301_6330">
<rect width="1475" height="968" fill="white" transform="matrix(-1 0 0 -1 902 573)"/>
</clipPath>
<clipPath id="clip2_5301_6330">
<rect width="1475.79" height="1051.56" fill="white" transform="matrix(-1 0 0 -1 917.786 636.561)"/>
</clipPath>
<clipPath id="clip3_5301_6330">
<rect width="1451" height="248" fill="white" transform="translate(-1)"/>
</clipPath>
</defs>
</svg>
